<?xml version="1.0" encoding="UTF-8"?>
<svg width="21px" height="17px" viewBox="0 0 21 17" version="1.1" xmlns="http://www.w3.org/2000/svg" xmlns:xlink="http://www.w3.org/1999/xlink">
    <!-- Generator: Sketch 3.6.1 (26313) - http://www.bohemiancoding.com/sketch -->
    <title>Shape</title>
    <desc>Created with Sketch.</desc>
    <defs>
        <radialGradient cx="79.9904482%" cy="76.550293%" fx="79.9904482%" fy="76.550293%" r="79.0487478%" id="radialGradient-1">
            <stop stop-color="#7E00E8" offset="0%"></stop>
            <stop stop-color="#FF1876" offset="40.1611328%"></stop>
            <stop stop-color="#BB0CB2" offset="100%"></stop>
        </radialGradient>
    </defs>
    <g id="Desktop-/-Tablet" stroke="none" stroke-width="1" fill="none" fill-rule="evenodd">
        <g id="step-#1-(allow-geo-detect)" transform="translate(-834.000000, -16.000000)" fill="url(#radialGradient-1)">
            <g id="Navigation">
                <g id="cart" transform="translate(666.000000, 10.228466)">
                    <g id="Group-10" transform="translate(138.000000, 0.000000)">
                        <g id="Group-7" transform="translate(0.000000, 6.137080)">
                            <path d="M35.8136646,10.8256563 L48.5838509,10.8256563 L48.5838509,10.8256563 L48.5838509,10.8256563 C48.6335404,10.8256563 48.6832298,10.8256563 48.7329193,10.7748317 L48.7826087,10.7748317 C48.8322981,10.7748317 48.8322981,10.724007 48.8322981,10.724007 C48.8322981,10.724007 48.8322981,10.6731823 48.8819876,10.6731823 L48.931677,10.6223576 L48.931677,10.571533 C48.931677,10.571533 48.931677,10.571533 48.931677,10.5207083 L50.4223602,3.10030534 L50.4223602,3.04948066 C50.4223602,3.04948066 50.4223602,3.04948066 50.4223602,2.99865598 C50.4223602,2.99865598 50.4223602,2.99865598 50.4223602,2.94783131 L50.4223602,2.89700663 C50.4223602,2.89700663 50.4223602,2.84618195 50.3726708,2.84618195 C50.3726708,2.84618195 50.3726708,2.79535727 50.3229814,2.79535727 L50.2732919,2.7445326 L50.2236025,2.69370792 C50.2236025,2.69370792 50.173913,2.69370792 50.173913,2.64288324 C50.173913,2.64288324 50.173913,2.64288324 50.1242236,2.64288324 L50.0745342,2.64288324 C50.0745342,2.64288324 50.0745342,2.64288324 50.0248447,2.64288324 L45.8012422,2.64288324 L44.757764,2.64288324 L34.5714286,2.64288324 L34.0745342,0.304948066 C34.0745342,0.304948066 34.0745342,0.304948066 34.0745342,0.254123388 C34.0745342,0.203298711 34.0745342,0.203298711 34.0248447,0.203298711 C34.0248447,0.203298711 34.0248447,0.152474033 33.9751553,0.152474033 L33.9254658,0.101649355 L33.8757764,0.0508246777 C33.8757764,0.0508246777 33.826087,0.0508246777 33.826087,5.32907052e-15 L33.7267081,5.32907052e-15 C33.7267081,5.32907052e-15 33.7267081,5.32907052e-15 33.6770186,5.32907052e-15 L30.3975155,5.32907052e-15 C30.1987578,5.32907052e-15 30,0.152474033 30,0.406597422 C30,0.66072081 30.1490683,0.813194843 30.3975155,0.813194843 L33.378882,0.813194843 L35.3167702,10.1649355 C34.4720497,10.3682343 33.826087,11.1306044 33.826087,12.0962733 C33.826087,13.1635915 34.6708075,14.0784357 35.7639752,14.0784357 L36.7080745,14.0784357 C36.5590062,14.2817344 36.5093168,14.5358578 36.5093168,14.8408059 C36.5093168,15.7048254 37.1552795,16.3655462 38,16.3655462 C38.8447205,16.3655462 39.4906832,15.7048254 39.4906832,14.8408059 C39.4906832,14.5866825 39.3913043,14.2817344 39.2919255,14.0784357 L45.0062112,14.0784357 C44.8571429,14.2817344 44.8074534,14.5358578 44.8074534,14.8408059 C44.8074534,15.7048254 45.4534161,16.3655462 46.2981366,16.3655462 C47.1428571,16.3655462 47.7888199,15.7048254 47.7888199,14.8408059 C47.7888199,14.5866825 47.689441,14.2817344 47.5900621,14.0784357 L48.5341615,14.0784357 C48.7329193,14.0784357 48.931677,13.9259617 48.931677,13.6718383 C48.931677,13.4177149 48.7826087,13.2652409 48.5341615,13.2652409 L35.8136646,13.2652409 C35.1677019,13.2652409 34.621118,12.7061694 34.621118,12.0454486 C34.621118,11.3847278 35.1677019,10.8256563 35.8136646,10.8256563 L35.8136646,10.8256563 Z M44.8074534,3.40525341 L45.8509317,3.40525341 L49.6273292,3.40525341 L48.2857143,10.0632862 L36.1118012,10.0632862 L34.7204969,3.40525341 L44.8074534,3.40525341 L44.8074534,3.40525341 Z M38.7950311,14.7899812 C38.7950311,15.1965786 38.447205,15.5523514 38.0496894,15.5523514 C37.6521739,15.5523514 37.3043478,15.1965786 37.3043478,14.7899812 C37.3043478,14.3833838 37.6521739,14.027611 38.0496894,14.027611 C38.447205,14.027611 38.7950311,14.3833838 38.7950311,14.7899812 L38.7950311,14.7899812 Z M47.0931677,14.7899812 C47.0931677,15.1965786 46.7453416,15.5523514 46.3478261,15.5523514 C45.9503106,15.5523514 45.6024845,15.1965786 45.6024845,14.7899812 C45.6024845,14.3833838 45.9503106,14.027611 46.3478261,14.027611 C46.7453416,14.027611 47.0931677,14.3833838 47.0931677,14.7899812 L47.0931677,14.7899812 Z" id="Shape"></path>
                        </g>
                    </g>
                </g>
            </g>
        </g>
    </g>
</svg>