<?xml version="1.0" encoding="UTF-8"?>
<svg width="26px" height="27px" viewBox="0 0 26 27" version="1.1" xmlns="http://www.w3.org/2000/svg" xmlns:xlink="http://www.w3.org/1999/xlink">
    <!-- Generator: Sketch 3.6.1 (26313) - http://www.bohemiancoding.com/sketch -->
    <title>Combined Shape</title>
    <desc>Created with Sketch.</desc>
    <defs>
        <linearGradient x1="100%" y1="50%" x2="0%" y2="50%" id="linearGradient-1">
            <stop stop-color="#7E00E8" offset="0%"></stop>
            <stop stop-color="#FF1876" offset="54.1721397%"></stop>
            <stop stop-color="#BB0CB2" offset="100%"></stop>
        </linearGradient>
    </defs>
    <g id="Desktop-/-Tablet" stroke="none" stroke-width="1" fill="none" fill-rule="evenodd">
        <g id="step-#1-(allow-geo-detect)" transform="translate(-164.000000, -12.000000)" fill="url(#linearGradient-1)">
            <g id="Navigation">
                <g id="Bg">
                    <g id="Group-3" transform="translate(164.000000, 12.274160)">
                        <path d="M0.0942809042,13.8978529 L5.22761424,16.898203 C5.2942809,16.9663928 5.36094757,16.9663928 5.4942809,16.9663928 C5.6942809,16.9663928 5.82761424,16.898203 5.96094757,16.6936337 C6.0942809,16.4208746 6.02761424,16.1481155 5.76094757,16.0117359 L1.36094757,13.4205245 L5.76094757,10.829313 C6.02761424,10.6929334 6.0942809,10.3519845 5.96094757,10.1474152 C5.82761424,9.87465612 5.4942809,9.80646634 5.2942809,9.94284589 L0.160947571,12.943196 L0.0942809042,13.0113858 L0.0276142375,13.0795756 L0.0276142375,13.1477654 L0.0276142375,13.2159551 L0.0276142375,13.2841449 L0.0276142375,13.3523347 L0.0276142375,13.4205245 L0.0276142375,13.4887142 C-0.0390524292,13.7614733 0.0276142375,13.8296631 0.0942809042,13.8978529 Z M25.3609476,13.4205245 L25.3609476,13.3523347 L25.3609476,13.2841449 L25.3609476,13.2159551 L25.2942809,13.1477654 L25.2276142,13.0795756 L20.0942809,10.0792254 C19.8276142,9.94284589 19.5609476,10.0110357 19.4276142,10.2837948 C19.2942809,10.5565539 19.3609476,10.829313 19.6276142,10.9656925 L24.0276142,13.556904 L19.6276142,16.1481155 C19.3609476,16.2844951 19.2942809,16.6254439 19.4276142,16.8300133 C19.4942809,16.9663928 19.6942809,17.1027724 19.8942809,17.1027724 C19.9609476,17.1027724 20.0942809,17.1027724 20.1609476,17.0345826 L25.2942809,14.0342324 C25.3609476,13.9660427 25.4276142,13.8978529 25.4942809,13.8296631 L25.4942809,13.7614733 L25.4942809,13.6932836 C25.3609476,13.4887142 25.3609476,13.4887142 25.3609476,13.4205245 Z M22.0942809,0.123518162 C21.8942809,-0.0810511654 21.5609476,-0.0128613895 21.4276142,0.191707938 L3.02761424,25.1491659 C2.8942809,25.3537352 2.8942809,25.6946841 3.0942809,25.8310637 C3.16094757,25.8992535 3.2942809,25.9674432 3.42761424,25.9674432 C3.56094757,25.9674432 3.76094757,25.8992535 3.82761424,25.7628739 L22.2276142,0.805415921 C22.3609476,0.600846594 22.3609476,0.32808749 22.0942809,0.123518162 Z" id="Combined-Shape"></path>
                    </g>
                </g>
            </g>
        </g>
    </g>
</svg>